# xmcd
#
# Track frame offsets:
#	150
#	26805
#	50705
#	70808
#	92201
#	107347
#	127517
#	155878
#	173319
#	192412
#	214362
#	238649
#	254371
#	273413
#	293031
#	315206
#	336601
#
# Disc length: 4740 seconds
#
# Revision: 1
# Processed by: cddbd v1.5.2PL0 Copyright (c) Steve Scherf et al.
# Submitted via: audiograbber 1.83.01
#
DISCID=f6128211
DTITLE=Keith Urban - Love, Pain and the whole crazy thing
DYEAR=2006
DGENRE=Country
TTITLE0=Once in a lifetime
TTITLE1=Shine
TTITLE2=I told you so
TTITLE3=I can't stop loving you
TTITLE4=Won't let you down
TTITLE5=Faster car
TTITLE6=Stupid boy
TTITLE7=Used to the pain
TTITLE8=Tu compania
TTITLE9=God made women
TTITLE10=Everybody
TTITLE11=Got it right this time
TTITLE12=I want to be your everything
TTITLE13=Tonight I wanna cry
TTITLE14=You'll think of me
TTITLE15=Better life 1
TTITLE16=You're my better half
EXTD=
EXTT0=
EXTT1=
EXTT2=
EXTT3=
EXTT4=
EXTT5=
EXTT6=
EXTT7=
EXTT8=
EXTT9=
EXTT10=
EXTT11=
EXTT12=
EXTT13=
EXTT14=
EXTT15=
EXTT16=
PLAYORDER=
